<?xml version="1.0" encoding="utf-8"?>
<!-- Generator: Adobe Illustrator 23.0.3, SVG Export Plug-In . SVG Version: 6.00 Build 0)  -->
<svg version="1.1" id="Layer_1" xmlns="http://www.w3.org/2000/svg" xmlns:xlink="http://www.w3.org/1999/xlink" x="0px" y="0px"
	 viewBox="0 0 159.2 106" style="enable-background:new 0 0 159.2 106;" xml:space="preserve">
<style type="text/css">
	.st0{fill:#01A0C6;}
	.st1{fill:#E2EDED;stroke:#808080;stroke-miterlimit:10;}
	.st2{fill:#4D4D4D;}
	.st3{fill:#999999;}
	.st4{fill:#FFFFFF;stroke:#808080;stroke-miterlimit:10;}
	.st5{fill:#529B98;}
	.st6{fill:none;stroke:#3A7A7E;stroke-width:3.3824;stroke-miterlimit:10;}
	.st7{fill:#3A7A7E;}
</style>
<path class="st0" d="M342-179.3"/>
<g>
	<path class="st1" d="M127.6-270.2c-8.6-1.6-17.1-0.6-24.6,2.3C96.9-278.6,84.5-286,70.2-286c-20.3,0-36.8,14.8-36.8,33.1
		c0,0.5,0,0.9,0,1.4c-15.2,4.1-26.3,16.7-26.3,31.7c0,13.4,8.8,24.9,21.6,30.1c4.1,2.3,8.9,3.6,14,3.6h68.5c1.5,0,3-0.1,4.5-0.4
		c22.9,2.6,44.1-12.3,48.1-34.3C167.9-243.6,151.7-265.9,127.6-270.2z"/>
	<g>
		<path class="st2" d="M149.4-180.6h-41.5c-6.5,0-11.8-5.3-11.8-11.8v-33.8c0-3.1,2.5-5.5,5.5-5.5h54c3.1,0,5.5,2.5,5.5,5.5v33.8
			C161.1-185.8,155.9-180.6,149.4-180.6z"/>
		<path class="st3" d="M153.2-246.6c-0.7-8.8-6.8-15.7-14.3-15.7h-20.6c-7.5,0-13.6,6.9-14.3,15.7H104v14.9h8.6v-14.9
			c1.2-5,5.5-7.1,10-7.1h11.9c4.5,0,9,2.1,10.1,7.1v14.9h8.6L153.2-246.6L153.2-246.6z"/>
		<path d="M135.3-196.5l-4.5-9.7c2.5-0.9,4.2-3.2,4.2-6c0-3.5-2.9-6.4-6.4-6.4c-3.5,0-6.4,2.9-6.4,6.4c0,2.8,1.8,5.1,4.2,6l-4.5,9.7
			H135.3z"/>
	</g>
</g>
<g>
	<g>
		<path class="st1" d="M353.8-256.9c-8.6-1.6-17.1-0.6-24.6,2.3c-6.1-10.7-18.5-18.1-32.8-18.1c-20.3,0-36.8,14.8-36.8,33.1
			c0,0.5,0,0.9,0,1.4c-15.2,4.1-26.3,16.7-26.3,31.7c0,13.4,8.8,24.9,21.6,30.1c4.1,2.3,8.9,3.6,14,3.6h68.5c1.5,0,3-0.1,4.5-0.4
			c22.9,2.6,44.1-12.3,48.1-34.3C394.1-230.3,377.9-252.5,353.8-256.9z"/>
	</g>
	<path class="st2" d="M387.2-218l-16.3-33.4c-1.6-3.3-6.2-3.3-7.9,0L346.7-218c-1.4,2.9,0.7,6.4,3.9,6.4h5.4c0,0-9.3,36.4-41.9,38.7
		c22.4,2.2,59,22,65.1-38.7h4C386.6-211.6,388.7-215,387.2-218z"/>
</g>
<g>
	<g>
		<path class="st1" d="M540.4-253.8c-8.6-1.6-17.1-0.6-24.6,2.3c-6.1-10.7-18.5-18.1-32.8-18.1c-20.3,0-36.8,14.8-36.8,33.1
			c0,0.5,0,0.9,0,1.4c-15.2,4.1-26.3,16.7-26.3,31.7c0,13.4,8.8,24.9,21.6,30.1c4.1,2.3,8.9,3.6,14,3.6h68.5c1.5,0,3-0.1,4.5-0.4
			c22.9,2.6,44.1-12.3,48.1-34.3C580.6-227.2,564.5-249.4,540.4-253.8z"/>
	</g>
	<path class="st2" d="M570-213.9l-16.9,29c-1.7,2.9-6.5,2.9-8.1,0l-16.9-29c-1.5-2.6,0.7-5.6,4.1-5.6h5.6c0,0,13.7-31.5-22.1-32.8
		c5.8-4.5,50.1-20,46.1,32.8h4.2C569.3-219.5,571.5-216.5,570-213.9z"/>
</g>
<g>
	<path class="st4" d="M127.6-395.3c-8.6-1.6-17.1-0.6-24.6,2.3c-6.1-10.7-18.5-18.1-32.8-18.1c-20.3,0-36.8,14.8-36.8,33.1
		c0,0.5,0,0.9,0,1.4c-15.2,4.1-26.3,16.7-26.3,31.7c0,13.4,8.8,24.9,21.6,30.1c4.1,2.3,8.9,3.6,14,3.6h68.5c1.5,0,3-0.1,4.5-0.4
		c22.9,2.6,44.1-12.3,48.1-34.3C167.9-368.8,151.7-391,127.6-395.3z"/>
</g>
<g>
	<g>
		<path class="st1" d="M716.6-254.6c-8.6-1.6-17.1-0.6-24.6,2.3c-6.1-10.7-18.5-18.1-32.8-18.1c-20.3,0-36.8,14.8-36.8,33.1
			c0,0.5,0,0.9,0,1.4c-15.2,4.1-26.3,16.7-26.3,31.7c0,13.4,8.8,24.9,21.6,30.1c4.1,2.3,8.9,3.6,14,3.6h68.5c1.5,0,3-0.1,4.5-0.4
			c22.9,2.6,44.1-12.3,48.1-34.3C756.9-228.1,740.7-250.3,716.6-254.6z"/>
	</g>
	<path class="st2" d="M708.5-165.5l-5.5-25c2.8-1.2,4.8-4,4.8-7.3c0-4.3-3.5-7.9-7.9-7.9s-7.9,3.5-7.9,7.9c0,3.3,2,6.1,4.8,7.3
		l-5.5,25c-0.3,1.5,0.8,3,2.4,3h12.3C707.7-162.5,708.8-164,708.5-165.5z"/>
	<path class="st2" d="M747.6-165.7l-5.4-29.3c2.7-1.2,4.6-4,4.6-7.2c0-4.3-3.5-7.9-7.9-7.9c-4.3,0-7.9,3.5-7.9,7.9
		c0,3.2,1.9,5.9,4.6,7.2l-5.4,29.3c-0.3,1.6,1,3.2,2.6,3.2h12C746.6-162.5,747.9-164.1,747.6-165.7z"/>
	<path class="st2" d="M728.3-166l-5.1-35.8c2.5-1.3,4.2-3.9,4.2-7c0-4.3-3.5-7.9-7.9-7.9s-7.9,3.5-7.9,7.9c0,3,1.7,5.6,4.2,7
		l-5.1,35.8c-0.3,1.8,1.2,3.5,3,3.5h11.4C727.1-162.5,728.5-164.2,728.3-166z"/>
</g>
<g>
	<g>
		<path class="st4" d="M313.1-423.1c-8.6-1.6-17.1-0.6-24.6,2.3c-6.1-10.7-18.5-18.1-32.8-18.1c-20.3,0-36.8,14.8-36.8,33.1
			c0,0.5,0,0.9,0,1.4c-15.2,4.1-26.3,16.7-26.3,31.7c0,13.4,8.8,24.9,21.6,30.1c4.1,2.3,8.9,3.6,14,3.6h68.5c1.5,0,3-0.1,4.5-0.4
			c22.9,2.6,44.1-12.3,48.1-34.3C353.4-396.6,337.3-418.8,313.1-423.1z"/>
	</g>
	<path class="st2" d="M388.2-377.3l-33.4-16.3c-2.9-1.4-6.4,0.7-6.4,3.9v5.4l-47.6-0.1c-0.4,0-0.7,0.1-1.1,0.2h-16.1
		c-0.6,0-1.2,0.5-1.2,1.2s0.5,1.2,1.2,1.2h13.7c-0.1,0.4-0.2,0.8-0.2,1.2v1.9h-7.6c-0.6,0-1.2,0.5-1.2,1.2s0.5,1.2,1.2,1.2h7.6v2.8
		h-17.3c-0.6,0-1.2,0.5-1.2,1.2s0.5,1.2,1.2,1.2h17.3v2.8h-11.9c-0.6,0-1.2,0.5-1.2,1.2v0c0,0.6,0.5,1.2,1.2,1.2h11.9v0.6
		c0,0.5,0.1,1.1,0.3,1.5h-13.8c-0.6,0-1.2,0.5-1.2,1.2s0.5,1.2,1.2,1.2h26.1l38.7,0.7v4c0,3.2,3.4,5.4,6.4,3.9l33.4-16.3
		C391.4-371,391.4-375.7,388.2-377.3z"/>
</g>
<g>
	<g>
		<path class="st4" d="M581.1-407.3c-8.6-1.6-17.1-0.6-24.6,2.3c-6.1-10.7-18.5-18.1-32.8-18.1c-20.3,0-36.8,14.8-36.8,33.1
			c0,0.5,0,0.9,0,1.4c-15.2,4.1-26.3,16.7-26.3,31.7c0,13.4,8.8,24.9,21.6,30.1c4.1,2.3,8.9,3.6,14,3.6h68.5c1.5,0,3-0.1,4.5-0.4
			c22.9,2.6,44.1-12.3,48.1-34.3C621.4-380.8,605.2-403,581.1-407.3z"/>
	</g>
	<g>
		<path class="st2" d="M625.6-379.2c0.1-1.1-0.7-2.1-1.8-2.2l-25.2-2.4c-1.1-0.1-2.1,0.7-2.2,1.8l-0.1,1.3l-30.6-2.9
			c-2.5-0.2-4.7,1.6-4.9,4l-4.7,48.8c-0.2,2.5,1.6,4.7,4,4.9l55.3,5.3c2.5,0.2,4.7-1.6,4.9-4l4.7-48.8c0-0.4,0-0.9-0.1-1.3
			c0.1-0.2,0.2-0.5,0.2-0.8L625.6-379.2z"/>
		<path class="st3" d="M615.8-320.5h-62.4c-2.7,0-5-2.2-5-5v-45.3c0-2.7,2.2-5,5-5h62.4c2.7,0,5,2.2,5,5v45.3
			C620.8-322.7,618.5-320.5,615.8-320.5z"/>
	</g>
</g>
<g id="Check_-_Grey">
	<polygon points="360.4,-53.1 343.3,-70.2 302.9,-26.7 285.1,-46.6 268.1,-29.5 302.4,4.8 302.4,4.8 302.5,4.8 	"/>
</g>
<g>
	<polygon class="st5" points="211,-58.6 118.3,-58.6 115.3,-71.2 214.2,-71.2 	"/>
	<path class="st5" d="M225-126.4c-5.1,0-9.3,4.2-9.3,9.3c0,2,0.6,3.8,1.7,5.3c-30.8,26.4-47.4-10.8-49-23.4l0,0
		c3.4-1.4,5.7-4.7,5.7-8.6c0-5.1-4.2-9.3-9.3-9.3c-5.1,0-9.3,4.2-9.3,9.3c0,3.9,2.3,7.2,5.7,8.6c-0.2,0.3-0.4,0.5-0.5,0.7
		c-9.6,42.1-32.1,33.5-49.3,21.9c1.2-1.6,1.9-3.5,1.9-5.7c0-5.1-4.2-9.3-9.3-9.3c-5.1,0-9.3,4.2-9.3,9.3c0,5.1,4.2,9.3,9.3,9.3
		c0.3,0,0.6,0,1,0l8.3,31.1h102.5l8.5-29.9c0.3,0,0.6,0,0.8,0c5.1,0,9.3-4.2,9.3-9.3C234.3-122.2,230.1-126.4,225-126.4z"/>
</g>
<g>
	<circle class="st5" cx="77.7" cy="53.3" r="50.9"/>
	<circle class="st6" cx="77.7" cy="53.3" r="41.6"/>
	<g>
		<path class="st7" d="M90.9,38.8c-1.3-1.4-2.9-2.6-5-3.5c-2.1-0.9-4.4-1.4-7.1-1.5v17.5c0.1,0,0.2,0,0.2,0c0.1,0,0.1,0,0.2,0
			c2.5,0.5,4.7,1.1,6.7,1.8c2,0.7,3.7,1.5,5.1,2.5c1.4,1,2.5,2.2,3.2,3.6c0.7,1.4,1.1,3.2,1.1,5.3c0,2.1-0.4,3.9-1.2,5.5
			c-0.8,1.6-1.9,2.9-3.4,3.9c-1.4,1-3.2,1.8-5.2,2.3c-2,0.5-4.2,0.8-6.5,0.9v6.4h-2.4V77c-6.4-0.3-12-2.5-16.8-6.7l2.3-3.7
			c1.5,1.7,3.6,3.1,6.1,4.3c2.6,1.2,5.4,1.9,8.6,2.1V55.4l-0.4-0.1c-2.5-0.6-4.6-1.2-6.4-1.8c-1.8-0.6-3.4-1.4-4.7-2.3
			c-1.3-0.9-2.2-2-2.9-3.3c-0.6-1.3-1-2.9-1-4.8c0-2.1,0.4-3.9,1.1-5.5c0.7-1.6,1.8-3,3.1-4.1c1.3-1.1,2.9-2,4.8-2.6
			c1.9-0.6,3.9-1,6.1-1.1v-6.6h2.4v6.6c2.9,0.1,5.5,0.6,7.8,1.5c2.3,0.9,4.4,2.2,6.2,3.8L90.9,38.8z M66.4,42.5
			c0,1.3,0.2,2.3,0.6,3.2c0.4,0.9,1,1.6,1.9,2.2c0.9,0.6,1.9,1.2,3.3,1.6s2.9,0.9,4.8,1.3v-17c-3.7,0.2-6.4,1-8.1,2.6
			C67.2,38,66.4,40,66.4,42.5z M90.6,65c0-1.3-0.3-2.4-0.8-3.3c-0.5-0.9-1.2-1.7-2.2-2.4c-1-0.7-2.2-1.3-3.7-1.8
			c-1.5-0.5-3.2-1-5.1-1.5V73c3.7,0,6.6-0.7,8.7-2C89.6,69.7,90.6,67.7,90.6,65z"/>
	</g>
</g>
<path class="st5" d="M613.3-8.5c-37-40.8-72.6,15.8-41.5,43.9c6.9,8.3,36.5,35.9,41.5,40.6c5.1-4.7,34.6-32.3,41.5-40.6
	C685.9,7.3,650.3-49.3,613.3-8.5z"/>
</svg>
