<?xml version="1.0" encoding="utf-8"?>
<!-- Generator: Adobe Illustrator 23.0.3, SVG Export Plug-In . SVG Version: 6.00 Build 0)  -->
<svg version="1.1" id="Layer_1" xmlns="http://www.w3.org/2000/svg" xmlns:xlink="http://www.w3.org/1999/xlink" x="0px" y="0px"
	 viewBox="0 0 108.5 84.2" style="enable-background:new 0 0 108.5 84.2;" xml:space="preserve">
<style type="text/css">
	.st0{fill:#01A0C6;}
	.st1{fill:#E2EDED;stroke:#808080;stroke-miterlimit:10;}
	.st2{fill:#4D4D4D;}
	.st3{fill:#999999;}
	.st4{fill:#FFFFFF;stroke:#808080;stroke-miterlimit:10;}
	.st5{fill:#529B98;}
	.st6{fill:none;stroke:#3A7A7E;stroke-width:3.3824;stroke-miterlimit:10;}
	.st7{fill:#3A7A7E;}
</style>
<path class="st0" d="M328.6-192.8"/>
<g>
	<path class="st1" d="M114.2-283.7c-8.6-1.6-17.1-0.6-24.6,2.3c-6.1-10.7-18.5-18.1-32.8-18.1c-20.3,0-36.8,14.8-36.8,33.1
		c0,0.5,0,0.9,0,1.4c-15.2,4.1-26.3,16.7-26.3,31.7c0,13.4,8.8,24.9,21.6,30.1c4.1,2.3,8.9,3.6,14,3.6h68.5c1.5,0,3-0.1,4.5-0.4
		c22.9,2.6,44.1-12.3,48.1-34.3C154.5-257.2,138.3-279.4,114.2-283.7z"/>
	<g>
		<path class="st2" d="M136-194.1H94.4c-6.5,0-11.8-5.3-11.8-11.8v-33.8c0-3.1,2.5-5.5,5.5-5.5h54c3.1,0,5.5,2.5,5.5,5.5v33.8
			C147.7-199.4,142.5-194.1,136-194.1z"/>
		<path class="st3" d="M139.8-260.1c-0.7-8.8-6.8-15.7-14.3-15.7h-20.6c-7.5,0-13.6,6.9-14.3,15.7h-0.1v14.9h8.6v-14.9
			c1.2-5,5.5-7.1,10-7.1h11.9c4.5,0,9,2.1,10.1,7.1v14.9h8.6L139.8-260.1L139.8-260.1z"/>
		<path d="M121.9-210l-4.5-9.7c2.5-0.9,4.2-3.2,4.2-6c0-3.5-2.9-6.4-6.4-6.4c-3.5,0-6.4,2.9-6.4,6.4c0,2.8,1.8,5.1,4.2,6l-4.5,9.7
			H121.9z"/>
	</g>
</g>
<g>
	<g>
		<path class="st1" d="M340.4-270.4c-8.6-1.6-17.1-0.6-24.6,2.3c-6.1-10.7-18.5-18.1-32.8-18.1c-20.3,0-36.8,14.8-36.8,33.1
			c0,0.5,0,0.9,0,1.4c-15.2,4.1-26.3,16.7-26.3,31.7c0,13.4,8.8,24.9,21.6,30.1c4.1,2.3,8.9,3.6,14,3.6H324c1.5,0,3-0.1,4.5-0.4
			c22.9,2.6,44.1-12.3,48.1-34.3C380.7-243.8,364.5-266.1,340.4-270.4z"/>
	</g>
	<path class="st2" d="M373.8-231.5l-16.3-33.4c-1.6-3.3-6.2-3.3-7.9,0l-16.3,33.4c-1.4,2.9,0.7,6.4,3.9,6.4h5.4
		c0,0-9.3,36.4-41.9,38.7c22.4,2.2,59,22,65.1-38.7h4C373.2-225.1,375.3-228.6,373.8-231.5z"/>
</g>
<g>
	<g>
		<path class="st1" d="M527-267.3c-8.6-1.6-17.1-0.6-24.6,2.3c-6.1-10.7-18.5-18.1-32.8-18.1c-20.3,0-36.8,14.8-36.8,33.1
			c0,0.5,0,0.9,0,1.4c-15.2,4.1-26.3,16.7-26.3,31.7c0,13.4,8.8,24.9,21.6,30.1c4.1,2.3,8.9,3.6,14,3.6h68.5c1.5,0,3-0.1,4.5-0.4
			c22.9,2.6,44.1-12.3,48.1-34.3C567.2-240.7,551.1-262.9,527-267.3z"/>
	</g>
	<path class="st2" d="M556.6-227.5l-16.9,29c-1.7,2.9-6.5,2.9-8.1,0l-16.9-29c-1.5-2.6,0.7-5.6,4.1-5.6h5.6c0,0,13.8-31.5-22.1-32.8
		c5.8-4.5,50.1-20,46.1,32.8h4.2C555.9-233,558.1-230,556.6-227.5z"/>
</g>
<g>
	<path class="st4" d="M114.2-408.9c-8.6-1.6-17.1-0.6-24.6,2.3c-6.1-10.7-18.5-18.1-32.8-18.1c-20.3,0-36.8,14.8-36.8,33.1
		c0,0.5,0,0.9,0,1.4C4.8-386-6.3-373.4-6.3-358.4c0,13.4,8.8,24.9,21.6,30.1c4.1,2.3,8.9,3.6,14,3.6h68.5c1.5,0,3-0.1,4.5-0.4
		c22.9,2.6,44.1-12.3,48.1-34.3C154.5-382.3,138.3-404.5,114.2-408.9z"/>
</g>
<g>
	<g>
		<path class="st1" d="M703.2-268.1c-8.6-1.6-17.1-0.6-24.6,2.3c-6.1-10.7-18.5-18.1-32.8-18.1c-20.3,0-36.8,14.8-36.8,33.1
			c0,0.5,0,0.9,0,1.4c-15.2,4.1-26.3,16.7-26.3,31.7c0,13.4,8.8,24.9,21.6,30.1c4.1,2.3,8.9,3.6,14,3.6h68.5c1.5,0,3-0.1,4.5-0.4
			c22.9,2.6,44.1-12.3,48.1-34.3C743.4-241.6,727.3-263.8,703.2-268.1z"/>
	</g>
	<path class="st2" d="M695.1-179.1l-5.5-25c2.8-1.2,4.8-4,4.8-7.3c0-4.3-3.5-7.9-7.9-7.9s-7.9,3.5-7.9,7.9c0,3.3,2,6.1,4.8,7.3
		l-5.5,25c-0.3,1.5,0.8,3,2.4,3h12.3C694.2-176.1,695.4-177.5,695.1-179.1z"/>
	<path class="st2" d="M734.2-179.2l-5.4-29.3c2.7-1.2,4.6-4,4.6-7.2c0-4.3-3.5-7.9-7.9-7.9c-4.3,0-7.9,3.5-7.9,7.9
		c0,3.2,1.9,5.9,4.6,7.2l-5.4,29.3c-0.3,1.6,1,3.2,2.6,3.2h12C733.2-176.1,734.5-177.6,734.2-179.2z"/>
	<path class="st2" d="M714.9-179.6l-5.1-35.8c2.5-1.3,4.2-3.9,4.2-7c0-4.3-3.5-7.9-7.9-7.9s-7.9,3.5-7.9,7.9c0,3,1.7,5.6,4.2,7
		l-5.1,35.8c-0.3,1.8,1.2,3.5,3,3.5h11.4C713.7-176.1,715.1-177.7,714.9-179.6z"/>
</g>
<g>
	<g>
		<path class="st4" d="M299.7-436.7c-8.6-1.6-17.1-0.6-24.6,2.3c-6.1-10.7-18.5-18.1-32.8-18.1c-20.3,0-36.8,14.8-36.8,33.1
			c0,0.5,0,0.9,0,1.4c-15.2,4.1-26.3,16.7-26.3,31.7c0,13.4,8.8,24.9,21.6,30.1c4.1,2.3,8.9,3.6,14,3.6h68.5c1.5,0,3-0.1,4.5-0.4
			c22.9,2.6,44.1-12.3,48.1-34.3C340-410.1,323.8-432.3,299.7-436.7z"/>
	</g>
	<path class="st2" d="M374.7-390.8l-33.4-16.3c-2.9-1.4-6.4,0.7-6.4,3.9v5.4l-47.6-0.1c-0.4,0-0.7,0.1-1.1,0.2h-16.1
		c-0.6,0-1.2,0.5-1.2,1.2s0.5,1.2,1.2,1.2h13.7c-0.1,0.4-0.2,0.8-0.2,1.2v1.9h-7.6c-0.6,0-1.2,0.5-1.2,1.2s0.5,1.2,1.2,1.2h7.6v2.8
		h-17.3c-0.6,0-1.2,0.5-1.2,1.2s0.5,1.2,1.2,1.2h17.3v2.8h-11.9c-0.6,0-1.2,0.5-1.2,1.2v0c0,0.6,0.5,1.2,1.2,1.2h11.9v0.6
		c0,0.5,0.1,1.1,0.3,1.5h-13.8c-0.6,0-1.2,0.5-1.2,1.2s0.5,1.2,1.2,1.2h26.1l38.7,0.7v4c0,3.2,3.4,5.4,6.4,3.9l33.4-16.3
		C378-384.5,378-389.2,374.7-390.8z"/>
</g>
<g>
	<g>
		<path class="st4" d="M567.7-420.8c-8.6-1.6-17.1-0.6-24.6,2.3c-6.1-10.7-18.5-18.1-32.8-18.1c-20.3,0-36.8,14.8-36.8,33.1
			c0,0.5,0,0.9,0,1.4c-15.2,4.1-26.3,16.7-26.3,31.7c0,13.4,8.8,24.9,21.6,30.1c4.1,2.3,8.9,3.6,14,3.6h68.5c1.5,0,3-0.1,4.5-0.4
			c22.9,2.6,44.1-12.3,48.1-34.3C608-394.3,591.8-416.5,567.7-420.8z"/>
	</g>
	<g>
		<path class="st2" d="M612.2-392.7c0.1-1.1-0.7-2.1-1.8-2.2l-25.2-2.4c-1.1-0.1-2.1,0.7-2.2,1.8l-0.1,1.3l-30.6-2.9
			c-2.5-0.2-4.7,1.6-4.9,4l-4.7,48.8c-0.2,2.5,1.6,4.7,4,4.9l55.3,5.3c2.5,0.2,4.7-1.6,4.9-4l4.7-48.8c0-0.4,0-0.9-0.1-1.3
			c0.1-0.2,0.2-0.5,0.2-0.8L612.2-392.7z"/>
		<path class="st3" d="M602.4-334H540c-2.7,0-5-2.2-5-5v-45.3c0-2.7,2.2-5,5-5h62.4c2.7,0,5,2.2,5,5v45.3
			C607.3-336.2,605.1-334,602.4-334z"/>
	</g>
</g>
<g id="Check_-_Grey">
	<polygon class="st2" points="98.6,19.4 81.5,2.3 41.2,45.8 23.4,25.9 6.3,43 40.6,77.3 40.7,77.3 40.7,77.3 	"/>
</g>
<g>
	<polygon class="st5" points="625.8,-87.9 533.1,-87.9 530.1,-100.5 629,-100.5 	"/>
	<path class="st5" d="M639.8-155.7c-5.1,0-9.3,4.2-9.3,9.3c0,2,0.6,3.8,1.7,5.3c-30.8,26.4-47.4-10.8-49-23.4l0,0
		c3.4-1.4,5.7-4.7,5.7-8.6c0-5.1-4.2-9.3-9.3-9.3c-5.1,0-9.3,4.2-9.3,9.3c0,3.9,2.3,7.2,5.7,8.6c-0.2,0.3-0.4,0.5-0.5,0.7
		c-9.6,42.1-32.1,33.5-49.3,21.9c1.2-1.6,1.9-3.5,1.9-5.7c0-5.1-4.2-9.3-9.3-9.3s-9.3,4.2-9.3,9.3s4.2,9.3,9.3,9.3c0.3,0,0.6,0,1,0
		l8.3,31.1h102.5l8.5-29.9c0.3,0,0.6,0,0.8,0c5.1,0,9.3-4.2,9.3-9.3S644.9-155.7,639.8-155.7z"/>
</g>
<g>
	<circle class="st5" cx="425.2" cy="-11.1" r="50.9"/>
	<circle class="st6" cx="425.2" cy="-11.1" r="41.6"/>
	<g>
		<path class="st7" d="M438.4-25.6c-1.3-1.4-2.9-2.6-5-3.5c-2.1-0.9-4.4-1.4-7.1-1.5v17.5c0.1,0,0.2,0,0.2,0c0.1,0,0.1,0,0.2,0
			c2.5,0.5,4.7,1.1,6.7,1.8c2,0.7,3.7,1.5,5.1,2.5c1.4,1,2.5,2.2,3.2,3.6c0.7,1.4,1.1,3.2,1.1,5.3c0,2.1-0.4,3.9-1.2,5.5
			c-0.8,1.6-1.9,2.9-3.4,3.9c-1.4,1-3.2,1.8-5.2,2.3c-2,0.5-4.2,0.8-6.5,0.9V19h-2.4v-6.4c-6.4-0.3-12-2.5-16.8-6.7l2.3-3.7
			c1.5,1.7,3.6,3.1,6.1,4.3c2.6,1.2,5.4,1.9,8.6,2.1V-9l-0.4-0.1c-2.5-0.6-4.6-1.2-6.4-1.8c-1.8-0.6-3.4-1.4-4.7-2.3
			c-1.3-0.9-2.2-2-2.9-3.3c-0.6-1.3-1-2.9-1-4.8c0-2.1,0.4-3.9,1.1-5.5c0.7-1.6,1.8-3,3.1-4.1c1.3-1.1,2.9-2,4.8-2.6
			c1.9-0.6,3.9-1,6.1-1.1v-6.6h2.4v6.6c2.9,0.1,5.5,0.6,7.8,1.5c2.3,0.9,4.4,2.2,6.2,3.8L438.4-25.6z M413.9-21.9
			c0,1.3,0.2,2.3,0.6,3.2c0.4,0.9,1,1.6,1.9,2.2c0.9,0.6,1.9,1.2,3.3,1.6c1.3,0.5,2.9,0.9,4.8,1.3v-17c-3.7,0.2-6.4,1-8.1,2.6
			C414.7-26.4,413.9-24.4,413.9-21.9z M438.1,0.5c0-1.3-0.3-2.4-0.8-3.3c-0.5-0.9-1.2-1.7-2.2-2.4c-1-0.7-2.2-1.3-3.7-1.8
			c-1.5-0.5-3.2-1-5.1-1.5V8.6c3.7,0,6.6-0.7,8.7-2C437.1,5.3,438.1,3.2,438.1,0.5z"/>
	</g>
</g>
<path class="st5" d="M599.9-22.1c-37-40.8-72.6,15.8-41.5,43.9c6.9,8.3,36.5,35.9,41.5,40.6c5.1-4.7,34.6-32.3,41.5-40.6
	C672.5-6.2,636.9-62.9,599.9-22.1z"/>
</svg>
