<?xml version="1.0" encoding="utf-8"?>
<!-- Generator: Adobe Illustrator 23.0.3, SVG Export Plug-In . SVG Version: 6.00 Build 0)  -->
<svg version="1.1" id="Layer_1" xmlns="http://www.w3.org/2000/svg" xmlns:xlink="http://www.w3.org/1999/xlink" x="0px" y="0px"
	 viewBox="0 0 38.2 26.9" style="enable-background:new 0 0 38.2 26.9;" xml:space="preserve">
<style type="text/css">
	.st0{stroke:#FFFFFF;stroke-width:0.8406;stroke-miterlimit:10;}
	.st1{fill:#01A0C6;}
	.st2{fill:#FFFFFF;}
	.st3{fill:#4D4D4D;}
	.st4{fill:#999999;}
	.st5{fill:#FFFFFF;stroke:#808080;stroke-width:0.6388;stroke-miterlimit:10;}
	.st6{fill:#FFFFFF;stroke:#000000;stroke-miterlimit:10;}
</style>
<rect x="-75.3" y="-550.1" class="st0" width="917.9" height="512.4"/>
<path class="st1" d="M325.9-175.5"/>
<g>
	<path class="st2" d="M68-327.3c-5.5-1-10.9-0.4-15.7,1.5c-3.9-6.8-11.8-11.5-21-11.5c-13,0-23.5,9.5-23.5,21.2c0,0.3,0,0.6,0,0.9
		C-1.9-312.7-9-304.6-9-295.1c0,8.6,5.6,15.9,13.8,19.3c2.6,1.5,5.7,2.3,8.9,2.3h43.8c1,0,1.9-0.1,2.9-0.2
		c14.6,1.6,28.2-7.8,30.7-21.9C93.7-310.4,83.4-324.5,68-327.3z"/>
	<g>
		<path class="st3" d="M81.8-270.1H55.3c-4.2,0-7.5-3.4-7.5-7.5v-21.6c0-1.9,1.6-3.5,3.5-3.5h34.5c1.9,0,3.5,1.6,3.5,3.5v21.6
			C89.4-273.4,86-270.1,81.8-270.1z"/>
		<path class="st4" d="M84.3-312.3c-0.4-5.6-4.3-10.1-9.1-10.1H62c-4.8,0-8.7,4.4-9.1,10.1h0v9.5h5.5v-9.5c0.7-3.2,3.5-4.5,6.4-4.5
			h7.6c2.9,0,5.7,1.3,6.5,4.5v9.5h5.5L84.3-312.3L84.3-312.3z"/>
		<path d="M72.9-280.2l-2.9-6.2c1.6-0.6,2.7-2.1,2.7-3.8c0-2.3-1.8-4.1-4.1-4.1c-2.3,0-4.1,1.8-4.1,4.1c0,1.8,1.1,3.3,2.7,3.8
			l-2.9,6.2H72.9z"/>
	</g>
</g>
<g>
	<g>
		<path class="st2" d="M-2.3-53c-1.6-0.3-3.1-0.1-4.5,0.4c-1.1-2-3.4-3.3-6-3.3c-3.7,0-6.7,2.7-6.7,6c0,0.1,0,0.2,0,0.3
			c-2.8,0.7-4.8,3.1-4.8,5.8c0,2.4,1.6,4.5,3.9,5.5c0.8,0.4,1.6,0.7,2.6,0.7h12.5c0.3,0,0.6,0,0.8-0.1c4.2,0.5,8-2.2,8.8-6.3
			C5.1-48.2,2.1-52.2-2.3-53z"/>
	</g>
	<path class="st3" d="M3.8-45.9l-3-6.1c-0.3-0.6-1.1-0.6-1.4,0l-3,6.1c-0.3,0.5,0.1,1.2,0.7,1.2h1c0,0-1.7,6.6-7.6,7.1
		c4.1,0.4,10.8,4,11.9-7.1h0.7C3.7-44.8,4.1-45.4,3.8-45.9z"/>
</g>
<g>
	<g>
		<path class="st2" d="M27.1,6.9c-1.7-0.3-3.3-0.1-4.7,0.4c-1.2-2.1-3.5-3.5-6.3-3.5C12.2,3.9,9,6.7,9,10.2c0,0.1,0,0.2,0,0.3
			c-2.9,0.8-5,3.2-5,6.1c0,2.6,1.7,4.8,4.1,5.8c0.8,0.4,1.7,0.7,2.7,0.7H24c0.3,0,0.6,0,0.9-0.1c4.4,0.5,8.5-2.4,9.2-6.6
			C34.8,12,31.7,7.7,27.1,6.9z"/>
	</g>
	<path class="st3" d="M32.8,14.5l-3.2,5.6c-0.3,0.5-1.2,0.5-1.6,0l-3.2-5.6c-0.3-0.5,0.1-1.1,0.8-1.1h1.1c0,0,2.6-6-4.2-6.3
		c1.1-0.9,9.6-3.8,8.8,6.3H32C32.7,13.5,33.1,14,32.8,14.5z"/>
</g>
<g>
	<g>
		<path class="st2" d="M444.2-317.4c-5.5-1-10.9-0.4-15.7,1.5c-3.9-6.8-11.8-11.5-21-11.5c-13,0-23.5,9.5-23.5,21.2
			c0,0.3,0,0.6,0,0.9c-9.7,2.6-16.8,10.7-16.8,20.3c0,8.6,5.6,15.9,13.8,19.3c2.6,1.5,5.7,2.3,8.9,2.3h43.8c1,0,1.9-0.1,2.9-0.2
			c14.6,1.6,28.2-7.8,30.7-21.9C469.9-300.4,459.6-314.6,444.2-317.4z"/>
	</g>
	<path class="st3" d="M439-260.5l-3.5-16c1.8-0.8,3.1-2.5,3.1-4.6c0-2.8-2.2-5-5-5c-2.8,0-5,2.2-5,5c0,2.1,1.3,3.9,3.1,4.6l-3.5,16
		c-0.2,1,0.5,1.9,1.5,1.9h7.9C438.5-258.5,439.2-259.5,439-260.5z"/>
	<path class="st3" d="M464-260.6l-3.5-18.7c1.7-0.8,3-2.5,3-4.6c0-2.8-2.2-5-5-5c-2.8,0-5,2.2-5,5c0,2,1.2,3.8,3,4.6l-3.5,18.7
		c-0.2,1.1,0.6,2,1.7,2h7.7C463.4-258.5,464.2-259.5,464-260.6z"/>
	<path class="st3" d="M451.6-260.8l-3.2-22.8c1.6-0.8,2.7-2.5,2.7-4.4c0-2.8-2.2-5-5-5s-5,2.2-5,5c0,1.9,1.1,3.6,2.7,4.4l-3.2,22.8
		c-0.2,1.2,0.7,2.2,1.9,2.2h7.3C450.9-258.5,451.8-259.6,451.6-260.8z"/>
</g>
<g>
	<g>
		<path class="st5" d="M186.5-425c-5.5-1-10.9-0.4-15.7,1.5c-3.9-6.8-11.8-11.5-21-11.5c-13,0-23.5,9.5-23.5,21.2c0,0.3,0,0.6,0,0.9
			c-9.7,2.6-16.8,10.7-16.8,20.3c0,8.6,5.6,15.9,13.8,19.3c2.6,1.5,5.7,2.3,8.9,2.3H176c1,0,1.9-0.1,2.9-0.2
			c14.6,1.6,28.2-7.8,30.7-21.9C212.2-408,201.9-422.2,186.5-425z"/>
	</g>
	<path class="st3" d="M234.4-395.7l-21.3-10.4c-1.9-0.9-4.1,0.4-4.1,2.5v3.5l-30.4,0c-0.2,0-0.5,0-0.7,0.1h-10.3
		c-0.4,0-0.7,0.3-0.7,0.7s0.3,0.7,0.7,0.7h8.8c-0.1,0.2-0.1,0.5-0.1,0.8v1.2h-4.9c-0.4,0-0.7,0.3-0.7,0.7s0.3,0.7,0.7,0.7h4.9v1.8
		h-11c-0.4,0-0.7,0.3-0.7,0.7s0.3,0.7,0.7,0.7h11v1.8h-7.6c-0.4,0-0.7,0.3-0.7,0.7v0c0,0.4,0.3,0.7,0.7,0.7h7.6v0.4
		c0,0.3,0.1,0.7,0.2,1h-8.8c-0.4,0-0.7,0.3-0.7,0.7s0.3,0.7,0.7,0.7h16.7l24.7,0.4v2.6c0,2.1,2.2,3.4,4.1,2.5l21.3-10.4
		C236.5-391.7,236.5-394.7,234.4-395.7z"/>
</g>
<g>
	<g>
		<path class="st5" d="M357.7-414.9c-5.5-1-10.9-0.4-15.7,1.5c-3.9-6.8-11.8-11.5-21-11.5c-13,0-23.5,9.5-23.5,21.2
			c0,0.3,0,0.6,0,0.9c-9.7,2.6-16.8,10.7-16.8,20.3c0,8.6,5.6,15.9,13.8,19.3c2.6,1.5,5.7,2.3,8.9,2.3h43.8c1,0,1.9-0.1,2.9-0.2
			c14.6,1.6,28.2-7.8,30.7-21.9C383.4-397.9,373.1-412.1,357.7-414.9z"/>
	</g>
	<g>
		<path class="st3" d="M386.1-396.9c0.1-0.7-0.4-1.3-1.1-1.4l-16.1-1.5c-0.7-0.1-1.3,0.4-1.4,1.1l-0.1,0.9l-19.6-1.9
			c-1.6-0.2-3,1-3.1,2.6l-3,31.2c-0.2,1.6,1,3,2.6,3.1l35.3,3.4c1.6,0.2,3-1,3.1-2.6l3-31.2c0-0.3,0-0.5,0-0.8
			c0.1-0.1,0.1-0.3,0.1-0.5L386.1-396.9z"/>
		<path class="st4" d="M379.8-359.4h-39.8c-1.8,0-3.2-1.4-3.2-3.2v-28.9c0-1.8,1.4-3.2,3.2-3.2h39.8c1.8,0,3.2,1.4,3.2,3.2v28.9
			C383-360.8,381.5-359.4,379.8-359.4z"/>
	</g>
</g>
<g id="Check_-_Grey">
	<polygon class="st6" points="351,-130.1 334,-147.2 293.6,-103.7 275.8,-123.6 258.7,-106.5 293.1,-72.2 293.1,-72.2 293.1,-72.2 	
		"/>
</g>
<g id="Group_9" transform="translate(28.73 4.592)">
	<path id="Path_35" class="st2" d="M44.9-52.3c-1.5-0.3-3-0.1-4.4,0.4c-1.1-1.9-3.3-3.2-5.9-3.2c-3.7,0-6.6,2.7-6.6,6
		c0,0.1,0,0.2,0,0.3c-2.7,0.7-4.7,3-4.7,5.7c0,2.4,1.6,4.5,3.9,5.4c0.8,0.4,1.6,0.7,2.5,0.7H42c0.3,0,0.5,0,0.8-0.1
		c4.1,0.5,7.9-2.2,8.6-6.2C52.2-47.5,49.3-51.5,44.9-52.3z"/>
	<g id="Group_8" transform="translate(50.982 13.522)">
		<path id="Rectangle_183" class="st3" d="M-10-58.9h8.2c1,0,1.7,0.8,1.7,1.7v3.8c0,2-1.7,3.7-3.7,3.7c0,0,0,0,0,0H-8
			c-2,0-3.7-1.7-3.7-3.7c0,0,0,0,0,0v-3.8C-11.7-58.1-10.9-58.9-10-58.9z"/>
		<path id="Path_36" class="st4" d="M-1.5-61.6c-0.1-1.6-1.2-2.8-2.6-2.8h-3.7c-1.3,0-2.4,1.2-2.6,2.8h0v2.7h1.5v-2.7
			c0.2-0.9,1-1.3,1.8-1.3h2.1c0.8,0,1.6,0.4,1.8,1.3v2.7h1.5L-1.5-61.6L-1.5-61.6z"/>
		<path id="Path_37" d="M-4.7-52.6l-0.8-1.7c0.5-0.2,0.8-0.6,0.8-1.1c0-0.6-0.5-1.1-1.1-1.1S-7-56-7-55.4c0,0.5,0.3,0.9,0.8,1.1
			l-0.8,1.7H-4.7z"/>
	</g>
</g>
</svg>
