<?xml version="1.0" encoding="utf-8"?>
<!-- Generator: Adobe Illustrator 23.0.3, SVG Export Plug-In . SVG Version: 6.00 Build 0)  -->
<svg version="1.1" id="Layer_1" xmlns="http://www.w3.org/2000/svg" xmlns:xlink="http://www.w3.org/1999/xlink" x="0px" y="0px"
	 viewBox="0 0 38.2 26.9" style="enable-background:new 0 0 38.2 26.9;" xml:space="preserve">
<style type="text/css">
	.st0{stroke:#FFFFFF;stroke-width:0.8406;stroke-miterlimit:10;}
	.st1{fill:#01A0C6;}
	.st2{fill:#FFFFFF;}
	.st3{fill:#4D4D4D;}
	.st4{fill:#999999;}
	.st5{fill:#FFFFFF;stroke:#000000;stroke-miterlimit:10;}
</style>
<rect x="-82.1" y="-556" class="st0" width="917.9" height="512.4"/>
<path class="st1" d="M325.9-175.5"/>
<g>
	<path class="st2" d="M68-327.3c-5.5-1-10.9-0.4-15.7,1.5c-3.9-6.8-11.8-11.5-21-11.5c-13,0-23.5,9.5-23.5,21.2c0,0.3,0,0.6,0,0.9
		C-1.9-312.7-9-304.6-9-295.1c0,8.6,5.6,15.9,13.8,19.3c2.6,1.5,5.7,2.3,8.9,2.3h43.8c1,0,1.9-0.1,2.9-0.2
		c14.6,1.6,28.2-7.8,30.7-21.9C93.7-310.4,83.4-324.5,68-327.3z"/>
	<g>
		<path class="st3" d="M81.8-270.1H55.3c-4.2,0-7.5-3.4-7.5-7.5v-21.6c0-1.9,1.6-3.5,3.5-3.5h34.5c1.9,0,3.5,1.6,3.5,3.5v21.6
			C89.4-273.4,86-270.1,81.8-270.1z"/>
		<path class="st4" d="M84.3-312.3c-0.4-5.6-4.3-10.1-9.1-10.1H62c-4.8,0-8.7,4.4-9.1,10.1h0v9.5h5.5v-9.5c0.7-3.2,3.5-4.5,6.4-4.5
			h7.6c2.9,0,5.7,1.3,6.5,4.5v9.5h5.5L84.3-312.3L84.3-312.3z"/>
		<path d="M72.9-280.2l-2.9-6.2c1.6-0.6,2.7-2.1,2.7-3.8c0-2.3-1.8-4.1-4.1-4.1c-2.3,0-4.1,1.8-4.1,4.1c0,1.8,1.1,3.3,2.7,3.8
			l-2.9,6.2H72.9z"/>
	</g>
</g>
<g>
	<g>
		<path class="st2" d="M-2.3-53c-1.6-0.3-3.1-0.1-4.5,0.4c-1.1-2-3.4-3.3-6-3.3c-3.7,0-6.7,2.7-6.7,6c0,0.1,0,0.2,0,0.3
			c-2.8,0.7-4.8,3.1-4.8,5.8c0,2.4,1.6,4.5,3.9,5.5c0.8,0.4,1.6,0.7,2.6,0.7h12.5c0.3,0,0.6,0,0.8-0.1c4.2,0.5,8-2.2,8.8-6.3
			C5.1-48.2,2.1-52.2-2.3-53z"/>
	</g>
	<path class="st3" d="M3.8-45.9l-3-6.1c-0.3-0.6-1.1-0.6-1.4,0l-3,6.1c-0.3,0.5,0.1,1.2,0.7,1.2h1c0,0-1.7,6.6-7.6,7.1
		c4.1,0.4,10.8,4,11.9-7.1h0.7C3.7-44.8,4.1-45.4,3.8-45.9z"/>
</g>
<g>
	<g>
		<path class="st2" d="M60-57.1c-1.7-0.3-3.3-0.1-4.7,0.4c-1.2-2.1-3.5-3.5-6.3-3.5c-3.9,0-7.1,2.8-7.1,6.4c0,0.1,0,0.2,0,0.3
			c-2.9,0.8-5,3.2-5,6.1c0,2.6,1.7,4.8,4.1,5.8c0.8,0.4,1.7,0.7,2.7,0.7h13.1c0.3,0,0.6,0,0.9-0.1c4.4,0.5,8.5-2.4,9.2-6.6
			C67.8-52,64.7-56.3,60-57.1z"/>
	</g>
	<path class="st3" d="M65.7-49.5l-3.2,5.6c-0.3,0.5-1.2,0.5-1.6,0l-3.2-5.6c-0.3-0.5,0.1-1.1,0.8-1.1h1.1c0,0,2.6-6-4.2-6.3
		c1.1-0.9,9.6-3.8,8.8,6.3H65C65.6-50.5,66-50,65.7-49.5z"/>
</g>
<g>
	<g>
		<path class="st2" d="M30.1-44c-1.6-0.3-3.2-0.1-4.6,0.4c-1.1-2-3.5-3.4-6.2-3.4c-3.8,0-6.9,2.8-6.9,6.2c0,0.1,0,0.2,0,0.3
			c-2.9,0.8-4.9,3.2-4.9,6c0,2.5,1.7,4.7,4.1,5.7c0.8,0.4,1.7,0.7,2.6,0.7H27c0.3,0,0.6,0,0.8-0.1c4.3,0.5,8.3-2.3,9-6.5
			C37.7-39,34.6-43.2,30.1-44z"/>
	</g>
	<path class="st3" d="M28.6-27.2l-1-4.7c0.5-0.2,0.9-0.7,0.9-1.4c0-0.8-0.7-1.5-1.5-1.5s-1.5,0.7-1.5,1.5c0,0.6,0.4,1.1,0.9,1.4
		l-1,4.7c-0.1,0.3,0.2,0.6,0.5,0.6h2.3C28.4-26.7,28.6-26.9,28.6-27.2z"/>
	<path class="st3" d="M35.9-27.3l-1-5.5c0.5-0.2,0.9-0.7,0.9-1.3c0-0.8-0.7-1.5-1.5-1.5c-0.8,0-1.5,0.7-1.5,1.5
		c0,0.6,0.4,1.1,0.9,1.3l-1,5.5c-0.1,0.3,0.2,0.6,0.5,0.6h2.3C35.7-26.7,36-27,35.9-27.3z"/>
	<path class="st3" d="M32.3-27.3l-1-6.7c0.5-0.2,0.8-0.7,0.8-1.3c0-0.8-0.7-1.5-1.5-1.5s-1.5,0.7-1.5,1.5c0,0.6,0.3,1.1,0.8,1.3
		l-1,6.7c0,0.3,0.2,0.7,0.6,0.7h2.1C32.1-26.7,32.3-27,32.3-27.3z"/>
</g>
<g>
	<g>
		<path class="st2" d="M23.1-82.4c-1.6-0.3-3.2-0.1-4.6,0.4c-1.1-2-3.5-3.4-6.1-3.4c-3.8,0-6.9,2.8-6.9,6.2c0,0.1,0,0.2,0,0.3
			c-2.8,0.8-4.9,3.1-4.9,5.9c0,2.5,1.7,4.7,4,5.6c0.8,0.4,1.7,0.7,2.6,0.7H20c0.3,0,0.6,0,0.8-0.1c4.3,0.5,8.2-2.3,9-6.4
			C30.6-77.4,27.6-81.6,23.1-82.4z"/>
	</g>
	<path class="st3" d="M37.1-73.8l-6.2-3.1c-0.5-0.3-1.2,0.1-1.2,0.7v1l-8.9,0c-0.1,0-0.1,0-0.2,0h-3c-0.1,0-0.2,0.1-0.2,0.2
		c0,0.1,0.1,0.2,0.2,0.2h2.6c0,0.1,0,0.1,0,0.2v0.4h-1.4c-0.1,0-0.2,0.1-0.2,0.2s0.1,0.2,0.2,0.2h1.4v0.5h-3.2
		c-0.1,0-0.2,0.1-0.2,0.2s0.1,0.2,0.2,0.2h3.2v0.5h-2.2c-0.1,0-0.2,0.1-0.2,0.2v0c0,0.1,0.1,0.2,0.2,0.2h2.2v0.1
		c0,0.1,0,0.2,0.1,0.3h-2.6c-0.1,0-0.2,0.1-0.2,0.2s0.1,0.2,0.2,0.2h4.9l7.2,0.1v0.8c0,0.6,0.6,1,1.2,0.7l6.2-3.1
		C37.7-72.7,37.7-73.5,37.1-73.8z"/>
</g>
<g>
	<g>
		<path class="st2" d="M25.5,5.6c-1.6-0.3-3.2-0.1-4.6,0.4c-1.1-2-3.5-3.4-6.2-3.4c-3.8,0-6.9,2.8-6.9,6.2c0,0.1,0,0.2,0,0.3
			c-2.9,0.8-4.9,3.1-4.9,6c0,2.5,1.7,4.7,4,5.7c0.8,0.4,1.7,0.7,2.6,0.7h12.9c0.3,0,0.6,0,0.8-0.1c4.3,0.5,8.3-2.3,9-6.4
			C33.1,10.6,30,6.4,25.5,5.6z"/>
	</g>
	<g>
		<path class="st3" d="M33.8,10.9c0-0.2-0.1-0.4-0.3-0.4l-4.7-0.5c-0.2,0-0.4,0.1-0.4,0.3l0,0.3l-5.8-0.5c-0.5,0-0.9,0.3-0.9,0.8
			L20.8,20c0,0.5,0.3,0.9,0.8,0.9l10.4,1c0.5,0,0.9-0.3,0.9-0.8l0.9-9.2c0-0.1,0-0.2,0-0.2c0,0,0-0.1,0-0.1L33.8,10.9z"/>
		<path class="st4" d="M32,21.9H20.3c-0.5,0-0.9-0.4-0.9-0.9v-8.5c0-0.5,0.4-0.9,0.9-0.9H32c0.5,0,0.9,0.4,0.9,0.9V21
			C32.9,21.5,32.5,21.9,32,21.9z"/>
	</g>
</g>
<g id="Check_-_Grey">
	<polygon class="st5" points="351,-130.1 334,-147.2 293.6,-103.7 275.8,-123.6 258.7,-106.5 293.1,-72.2 293.1,-72.2 293.1,-72.2 	
		"/>
</g>
<g id="Group_9" transform="translate(28.73 4.592)">
	<path id="Path_35" class="st2" d="M44.9-52.3c-1.5-0.3-3-0.1-4.4,0.4c-1.1-1.9-3.3-3.2-5.9-3.2c-3.7,0-6.6,2.7-6.6,6
		c0,0.1,0,0.2,0,0.3c-2.7,0.7-4.7,3-4.7,5.7c0,2.4,1.6,4.5,3.9,5.4c0.8,0.4,1.6,0.7,2.5,0.7H42c0.3,0,0.5,0,0.8-0.1
		c4.1,0.5,7.9-2.2,8.6-6.2C52.2-47.5,49.3-51.5,44.9-52.3z"/>
	<g id="Group_8" transform="translate(50.982 13.522)">
		<path id="Rectangle_183" class="st3" d="M-10-58.9h8.2c1,0,1.7,0.8,1.7,1.7v3.8c0,2-1.7,3.7-3.7,3.7c0,0,0,0,0,0H-8
			c-2,0-3.7-1.7-3.7-3.7c0,0,0,0,0,0v-3.8C-11.7-58.1-10.9-58.9-10-58.9z"/>
		<path id="Path_36" class="st4" d="M-1.5-61.6c-0.1-1.6-1.2-2.8-2.6-2.8h-3.7c-1.3,0-2.4,1.2-2.6,2.8h0v2.7h1.5v-2.7
			c0.2-0.9,1-1.3,1.8-1.3h2.1c0.8,0,1.6,0.4,1.8,1.3v2.7h1.5L-1.5-61.6L-1.5-61.6z"/>
		<path id="Path_37" d="M-4.7-52.6l-0.8-1.7c0.5-0.2,0.8-0.6,0.8-1.1c0-0.6-0.5-1.1-1.1-1.1S-7-56-7-55.4c0,0.5,0.3,0.9,0.8,1.1
			l-0.8,1.7H-4.7z"/>
	</g>
</g>
</svg>
