<?xml version="1.0" encoding="utf-8"?>
<!-- Generator: Adobe Illustrator 23.0.3, SVG Export Plug-In . SVG Version: 6.00 Build 0)  -->
<svg version="1.1" id="Layer_1" xmlns="http://www.w3.org/2000/svg" xmlns:xlink="http://www.w3.org/1999/xlink" x="0px" y="0px"
	 viewBox="0 0 32.1 23.3" style="enable-background:new 0 0 32.1 23.3;" xml:space="preserve">
<style type="text/css">
	.st0{stroke:#FFFFFF;stroke-width:0.8406;stroke-miterlimit:10;}
	.st1{fill:#01A0C6;}
	.st2{fill:#FFFFFF;}
	.st3{fill:#4D4D4D;}
	.st4{fill:#999999;}
	.st5{fill:#FFFFFF;stroke:#000000;stroke-miterlimit:10;}
</style>
<rect x="-86.2" y="-536" class="st0" width="917.9" height="512.4"/>
<path class="st1" d="M322.8-177.2"/>
<g>
	<path class="st2" d="M95.7-80.5c-1.6-0.3-3.1-0.1-4.5,0.4c-1.1-1.9-3.3-3.3-5.9-3.3c-3.7,0-6.7,2.7-6.7,6c0,0.1,0,0.2,0,0.3
		c-2.7,0.7-4.7,3-4.7,5.7c0,2.4,1.6,4.5,3.9,5.4c0.7,0.4,1.6,0.7,2.5,0.7h12.4c0.3,0,0.5,0,0.8-0.1c4.1,0.5,8-2.2,8.7-6.2
		C103-75.7,100.1-79.7,95.7-80.5z"/>
	<g>
		<path class="st3" d="M99.7-64.3h-7.5c-1.2,0-2.1-1-2.1-2.1v-6.1c0-0.6,0.4-1,1-1h9.8c0.6,0,1,0.4,1,1v6.1
			C101.8-65.3,100.8-64.3,99.7-64.3z"/>
		<path class="st4" d="M100.4-76.3c-0.1-1.6-1.2-2.8-2.6-2.8h-3.7c-1.4,0-2.5,1.3-2.6,2.8h0v2.7H93v-2.7c0.2-0.9,1-1.3,1.8-1.3H97
			c0.8,0,1.6,0.4,1.8,1.3v2.7h1.6L100.4-76.3L100.4-76.3z"/>
		<path d="M97.1-67.2L96.3-69c0.4-0.2,0.8-0.6,0.8-1.1c0-0.6-0.5-1.2-1.2-1.2c-0.6,0-1.2,0.5-1.2,1.2c0,0.5,0.3,0.9,0.8,1.1
			l-0.8,1.8H97.1z"/>
	</g>
</g>
<g>
	<g>
		<path class="st2" d="M23.7,5.2c-1.6-0.3-3.1-0.1-4.5,0.4c-1.1-2-3.4-3.3-6-3.3c-3.7,0-6.7,2.7-6.7,6c0,0.1,0,0.2,0,0.3
			c-2.8,0.7-4.8,3.1-4.8,5.8c0,2.4,1.6,4.5,3.9,5.5c0.8,0.4,1.6,0.7,2.6,0.7h12.5c0.3,0,0.6,0,0.8-0.1c4.2,0.5,8-2.2,8.8-6.3
			C31,10,28.1,5.9,23.7,5.2z"/>
	</g>
	<path class="st3" d="M29.8,12.3l-3-6.1c-0.3-0.6-1.1-0.6-1.4,0l-3,6.1c-0.3,0.5,0.1,1.2,0.7,1.2h1c0,0-1.7,6.6-7.6,7.1
		c4.1,0.4,10.8,4,11.9-7.1H29C29.6,13.4,30,12.8,29.8,12.3z"/>
</g>
<g>
	<g>
		<path class="st2" d="M57-58.8c-1.7-0.3-3.3-0.1-4.7,0.4c-1.2-2.1-3.5-3.5-6.3-3.5c-3.9,0-7.1,2.8-7.1,6.4c0,0.1,0,0.2,0,0.3
			c-2.9,0.8-5,3.2-5,6.1c0,2.6,1.7,4.8,4.1,5.8c0.8,0.4,1.7,0.7,2.7,0.7h13.1c0.3,0,0.6,0,0.9-0.1c4.4,0.5,8.5-2.4,9.2-6.6
			C64.7-53.7,61.6-57.9,57-58.8z"/>
	</g>
	<path class="st3" d="M62.7-51.1l-3.2,5.6c-0.3,0.5-1.2,0.5-1.6,0l-3.2-5.6c-0.3-0.5,0.1-1.1,0.8-1.1h1.1c0,0,2.6-6-4.2-6.3
		c1.1-0.9,9.6-3.8,8.8,6.3h0.8C62.5-52.2,63-51.6,62.7-51.1z"/>
</g>
<g>
	<g>
		<path class="st2" d="M27-45.6c-1.6-0.3-3.2-0.1-4.6,0.4c-1.1-2-3.5-3.4-6.2-3.4c-3.8,0-6.9,2.8-6.9,6.2c0,0.1,0,0.2,0,0.3
			c-2.9,0.8-4.9,3.2-4.9,6c0,2.5,1.7,4.7,4.1,5.7c0.8,0.4,1.7,0.7,2.6,0.7h12.9c0.3,0,0.6,0,0.8-0.1c4.3,0.5,8.3-2.3,9-6.5
			C34.6-40.6,31.6-44.8,27-45.6z"/>
	</g>
	<path class="st3" d="M25.5-28.9l-1-4.7c0.5-0.2,0.9-0.7,0.9-1.4c0-0.8-0.7-1.5-1.5-1.5s-1.5,0.7-1.5,1.5c0,0.6,0.4,1.1,0.9,1.4
		l-1,4.7c-0.1,0.3,0.2,0.6,0.5,0.6H25C25.3-28.3,25.6-28.6,25.5-28.9z"/>
	<path class="st3" d="M32.9-28.9l-1-5.5c0.5-0.2,0.9-0.7,0.9-1.3c0-0.8-0.7-1.5-1.5-1.5c-0.8,0-1.5,0.7-1.5,1.5
		c0,0.6,0.4,1.1,0.9,1.3l-1,5.5c-0.1,0.3,0.2,0.6,0.5,0.6h2.3C32.7-28.3,32.9-28.6,32.9-28.9z"/>
	<path class="st3" d="M29.2-29l-1-6.7c0.5-0.2,0.8-0.7,0.8-1.3c0-0.8-0.7-1.5-1.5-1.5s-1.5,0.7-1.5,1.5c0,0.6,0.3,1.1,0.8,1.3
		l-1,6.7c0,0.3,0.2,0.7,0.6,0.7h2.1C29-28.3,29.3-28.6,29.2-29z"/>
</g>
<g>
	<g>
		<path class="st2" d="M20-84.1c-1.6-0.3-3.2-0.1-4.6,0.4c-1.1-2-3.5-3.4-6.1-3.4c-3.8,0-6.9,2.8-6.9,6.2c0,0.1,0,0.2,0,0.3
			c-2.8,0.8-4.9,3.1-4.9,5.9c0,2.5,1.7,4.7,4,5.6c0.8,0.4,1.7,0.7,2.6,0.7H17c0.3,0,0.6,0,0.8-0.1c4.3,0.5,8.2-2.3,9-6.4
			C27.6-79.1,24.5-83.2,20-84.1z"/>
	</g>
	<path class="st3" d="M34.1-75.5l-6.2-3.1c-0.5-0.3-1.2,0.1-1.2,0.7v1l-8.9,0c-0.1,0-0.1,0-0.2,0h-3c-0.1,0-0.2,0.1-0.2,0.2
		s0.1,0.2,0.2,0.2h2.6c0,0.1,0,0.1,0,0.2v0.4h-1.4c-0.1,0-0.2,0.1-0.2,0.2c0,0.1,0.1,0.2,0.2,0.2H17v0.5h-3.2
		c-0.1,0-0.2,0.1-0.2,0.2s0.1,0.2,0.2,0.2H17v0.5h-2.2c-0.1,0-0.2,0.1-0.2,0.2v0c0,0.1,0.1,0.2,0.2,0.2H17v0.1c0,0.1,0,0.2,0.1,0.3
		h-2.6c-0.1,0-0.2,0.1-0.2,0.2s0.1,0.2,0.2,0.2h4.9l7.2,0.1v0.8c0,0.6,0.6,1,1.2,0.7l6.2-3.1C34.7-74.3,34.7-75.2,34.1-75.5z"/>
</g>
<g>
	<g>
		<path class="st2" d="M63.6-105.3c-1.6-0.3-3.2-0.1-4.6,0.4c-1.1-2-3.5-3.4-6.2-3.4c-3.8,0-6.9,2.8-6.9,6.2c0,0.1,0,0.2,0,0.3
			c-2.9,0.8-4.9,3.1-4.9,6c0,2.5,1.7,4.7,4,5.7c0.8,0.4,1.7,0.7,2.6,0.7h12.9c0.3,0,0.6,0,0.8-0.1c4.3,0.5,8.3-2.3,9-6.4
			C71.2-100.3,68.2-104.4,63.6-105.3z"/>
	</g>
	<g>
		<path class="st3" d="M72-100c0-0.2-0.1-0.4-0.3-0.4l-4.7-0.5c-0.2,0-0.4,0.1-0.4,0.3l0,0.3l-5.8-0.5c-0.5,0-0.9,0.3-0.9,0.8
			l-0.9,9.2c0,0.5,0.3,0.9,0.8,0.9l10.4,1c0.5,0,0.9-0.3,0.9-0.8l0.9-9.2c0-0.1,0-0.2,0-0.2c0,0,0-0.1,0-0.1L72-100z"/>
		<path class="st4" d="M70.1-89H58.4c-0.5,0-0.9-0.4-0.9-0.9v-8.5c0-0.5,0.4-0.9,0.9-0.9h11.7c0.5,0,0.9,0.4,0.9,0.9v8.5
			C71.1-89.4,70.6-89,70.1-89z"/>
	</g>
</g>
<g id="Check_-_Grey">
	<polygon class="st5" points="348,-131.8 330.9,-148.8 290.5,-105.3 272.7,-125.3 255.7,-108.2 290,-73.8 290,-73.9 290.1,-73.8 	
		"/>
</g>
<g id="Group_9" transform="translate(28.73 4.592)">
	<path id="Path_35" class="st2" d="M41.9-54c-1.5-0.3-3-0.1-4.4,0.4c-1.1-1.9-3.3-3.2-5.9-3.2c-3.7,0-6.6,2.7-6.6,6
		c0,0.1,0,0.2,0,0.3c-2.7,0.7-4.7,3-4.7,5.7c0,2.4,1.6,4.5,3.9,5.4c0.8,0.4,1.6,0.7,2.5,0.7h12.3c0.3,0,0.5,0,0.8-0.1
		c4.1,0.5,7.9-2.2,8.6-6.2C49.1-49.2,46.2-53.2,41.9-54z"/>
	<g id="Group_8" transform="translate(50.982 13.522)">
		<path id="Rectangle_183" class="st3" d="M-13.1-60.6h8.2c1,0,1.7,0.8,1.7,1.7v3.8c0,2-1.7,3.7-3.7,3.7c0,0,0,0,0,0h-4.3
			c-2,0-3.7-1.7-3.7-3.7c0,0,0,0,0,0v-3.8C-14.8-59.8-14-60.6-13.1-60.6z"/>
		<path id="Path_36" class="st4" d="M-4.5-63.2c-0.1-1.6-1.2-2.8-2.6-2.8h-3.7c-1.3,0-2.4,1.2-2.6,2.8h0v2.7h1.5v-2.7
			c0.2-0.9,1-1.3,1.8-1.3h2.1c0.8,0,1.6,0.4,1.8,1.3v2.7h1.5L-4.5-63.2L-4.5-63.2z"/>
		<path id="Path_37" d="M-7.7-54.2L-8.5-56c0.5-0.2,0.8-0.6,0.8-1.1c0-0.6-0.5-1.1-1.1-1.1s-1.1,0.5-1.1,1.1c0,0.5,0.3,0.9,0.8,1.1
			l-0.8,1.7H-7.7z"/>
	</g>
</g>
</svg>
